<svg width="40" height="40" viewBox="0 0 40 40" fill="none" xmlns="http://www.w3.org/2000/svg">
<path d="M40 20C40 31.0457 31.0457 40 20 40C8.9543 40 0 31.0457 0 20C0 8.9543 8.9543 0 20 0C31.0457 0 40 8.9543 40 20Z" fill="#B3282D"/>
<path fill-rule="evenodd" clip-rule="evenodd" d="M22.5316 18.1981C22.043 18.1981 21.4084 18.5439 20.8463 19.0802V26.0299H18.4148V18.9073C18.4148 18.0627 18.3058 17.2565 18.0888 16.6038L20.2462 15.9518C20.4646 16.3553 20.5914 16.7769 20.5914 17.1799C20.9538 16.9105 21.2624 16.6802 21.6617 16.4503C22.1511 16.1822 22.7865 16.0289 23.3299 16.0289C24.3639 16.0289 25.2708 16.6038 25.5607 17.4493C25.6875 17.8137 25.7423 18.2357 25.7423 18.8501V26.0299H23.3475V19.6371C23.3475 18.5242 23.1668 18.1981 22.5316 18.1981ZM29.4611 19.3685C29.4611 18.4476 29.9874 17.9092 30.912 17.9092C31.8382 17.9092 32.3817 18.4476 32.3817 19.3685C32.3817 20.2708 31.8558 20.7695 30.8941 20.7695C30.0417 20.7695 29.4611 20.367 29.4611 19.3685ZM31.8382 23.5151L30.5317 23.4959C30.2773 23.4959 30.133 23.3994 30.133 23.265C30.133 22.9969 30.4776 22.7668 31.0937 22.4588C31.2745 22.4785 31.3471 22.4785 31.4564 22.4785C33.4332 22.4785 34.8854 21.2488 34.8854 19.56C34.8854 18.9073 34.7025 18.4077 34.3397 17.9486C34.4848 17.9677 34.7396 18.0053 34.9756 18.0053C35.6464 18.0053 36.1533 17.7938 36.68 17.2756L35.6646 15.6437C35.1019 16.1821 34.4127 16.4893 33.7418 16.4893C33.4332 16.4893 33.1061 16.4114 32.5994 16.2775C31.9278 16.1055 31.4564 16.0288 30.9303 16.0288C28.5552 16.0288 27.0132 17.3339 27.0132 19.3496C27.0132 20.808 27.6657 21.7103 29.0081 22.0756C27.484 22.4969 27.3034 23.0932 27.3034 23.7262C27.3034 24.3984 27.5746 24.8394 28.0105 25.0117C28.4465 25.2045 29.1533 25.2991 30.2411 25.3191L31.2745 25.3385C32.2369 25.3576 32.9797 25.6271 32.9797 26.5094C32.9797 26.9129 32.7442 27.2772 32.3817 27.5072C32.0014 27.7577 31.475 27.833 30.8588 27.833C29.7344 27.833 29.1163 27.4117 29.1163 26.6239C29.1163 26.3555 29.1349 26.2221 29.2262 25.9915H26.977C26.8859 26.1827 26.7597 26.4525 26.7597 26.9901C26.7597 27.6604 27.0132 28.2376 27.5213 28.7361C28.3551 29.5619 29.716 29.7918 31.0388 29.7918C32.4894 29.7918 33.8872 29.4471 34.7025 28.5249C35.211 27.9494 35.4472 27.3164 35.4472 26.491C35.4472 25.6074 35.1924 24.9355 34.6489 24.3984C33.9954 23.7641 33.252 23.534 31.8382 23.5151ZM14.0075 16.3729L16.4371 15.9696V26.0298H14.0075V16.3729ZM13.735 13.494C13.735 12.6114 14.4243 11.9009 15.2583 11.9009C16.0745 11.9009 16.728 12.6114 16.728 13.494C16.728 14.3768 16.0561 15.0878 15.2218 15.0878C14.4063 15.0878 13.735 14.3768 13.735 13.494ZM9.90608 18.2357C9.56256 18.7924 9.25386 18.9269 8.22032 18.9269H6.89658V14.8567H8.50934C9.58016 14.8567 10.2145 15.6057 10.2145 16.8533C10.2145 17.4874 10.125 17.872 9.90608 18.2357ZM11.1771 13.3407C10.4689 12.918 9.81561 12.6882 7.67578 12.6882H4.35732V26.0298H6.89659V21.1155H8.29255C9.6885 21.1155 10.2332 20.9617 10.8137 20.6737C12.1917 19.9829 12.9887 18.5622 12.9887 16.7968C12.9887 15.2602 12.3546 14.032 11.1771 13.3407Z" fill="#FFFFFE"/>
</svg>