<svg xmlns="http://www.w3.org/2000/svg" width="30" height="30" viewBox="0 0 30 30">
    <g fill="none" fill-rule="evenodd">
        <g>
            <g transform="translate(-134 -608) translate(134 608)">
                <circle cx="15" cy="15" r="15" fill="#B8232F"/>
                <g fill="#FFF">
                    <path d="M0 12.6L4 12.6 4 .6 0 .6zM4.8.6h4.384c.837 0 1.579.14 2.225.421.647.281 1.192.682 1.638 1.203.446.522.783 1.147 1.01 1.875.229.727.343 1.538.343 2.432 0 1.043-.128 1.946-.383 2.708-.255.762-.625 1.392-1.108 1.891-.484.498-1.079.868-1.785 1.109-.707.24-1.51.361-2.412.361H4.8V.6zm3.064 9.696h.668c.88 0 1.54-.315 1.98-.945.44-.63.66-1.53.66-2.7 0-.767-.08-1.392-.244-1.873-.163-.482-.383-.854-.66-1.118-.277-.263-.603-.444-.978-.541-.375-.098-.768-.147-1.181-.147h-.245v7.324z" transform="translate(6 12)"/>
                </g>
            </g>
        </g>
    </g>
</svg>
